<svg width="43" height="39" viewBox="0 0 43 39" fill="none" xmlns="http://www.w3.org/2000/svg">
<path d="M42.4997 5.29167V34.0417C42.4997 35.3594 42.092 36.4878 41.2768 37.427C40.4615 38.3661 39.4802 38.8349 38.333 38.8333H4.99967C3.85384 38.8333 2.87329 38.3645 2.05801 37.427C1.24273 36.4894 0.834397 35.361 0.833008 34.0417V5.29167C0.833008 3.97396 1.24134 2.84632 2.05801 1.90875C2.87467 0.97118 3.85523 0.501597 4.99967 0.5H38.333C39.4788 0.5 40.4601 0.969583 41.2768 1.90875C42.0934 2.84792 42.5011 3.97556 42.4997 5.29167ZM4.99967 10.0833H38.333V5.29167H4.99967V10.0833ZM4.99967 19.6667V34.0417H38.333V19.6667H4.99967Z" fill="black"/>
</svg>
