<svg width="39" height="39" viewBox="0 0 39 39" fill="none" xmlns="http://www.w3.org/2000/svg">
<path d="M4.91667 38.25C3.77083 38.25 2.78125 37.8507 1.94792 37.0521C1.14931 36.2188 0.75 35.2292 0.75 34.0833V4.91667C0.75 3.77083 1.14931 2.79861 1.94792 2C2.78125 1.16667 3.77083 0.75 4.91667 0.75H34.0833C35.2292 0.75 36.2014 1.16667 37 2C37.8333 2.79861 38.25 3.77083 38.25 4.91667V34.0833C38.25 35.2292 37.8333 36.2188 37 37.0521C36.2014 37.8507 35.2292 38.25 34.0833 38.25H4.91667ZM4.91667 34.0833H34.0833V4.91667H4.91667V34.0833ZM7 29.9167H32L24.1875 19.5L17.9375 27.8333L13.25 21.5833L7 29.9167ZM4.91667 34.0833V4.91667V34.0833Z" fill="black"/>
</svg>
