<svg width="31" height="43" viewBox="0 0 31 43" fill="none" xmlns="http://www.w3.org/2000/svg">
<path d="M15.4998 42.3332C15.0137 42.3332 14.5971 42.1943 14.2498 41.9165C13.9026 41.6387 13.6422 41.2741 13.4686 40.8228C12.8089 38.8783 11.9755 37.0554 10.9686 35.354C9.99637 33.6526 8.62484 31.6561 6.854 29.3644C5.08317 27.0728 3.6422 24.8853 2.53109 22.8019C1.4547 20.7186 0.916504 18.2012 0.916504 15.2498C0.916504 11.1873 2.32275 7.74984 5.13525 4.93733C7.98248 2.09011 11.4373 0.666504 15.4998 0.666504C19.5623 0.666504 22.9998 2.09011 25.8123 4.93733C28.6596 7.74984 30.0832 11.1873 30.0832 15.2498C30.0832 18.4096 29.4755 21.0484 28.2603 23.1665C27.0797 25.2498 25.7082 27.3158 24.1457 29.3644C22.2707 31.8644 20.8471 33.9478 19.8748 35.6144C18.9373 37.2464 18.1561 38.9825 17.5311 40.8228C17.3575 41.3089 17.0797 41.6908 16.6978 41.9686C16.3505 42.2116 15.9512 42.3332 15.4998 42.3332ZM15.4998 34.8853C16.0901 33.7047 16.7498 32.5415 17.479 31.3957C18.2429 30.2498 19.354 28.7221 20.8123 26.8123C22.3054 24.8679 23.5207 23.0797 24.4582 21.4478C25.4304 19.7811 25.9165 17.7151 25.9165 15.2498C25.9165 12.3679 24.8922 9.91998 22.8436 7.90609C20.8297 5.85748 18.3818 4.83317 15.4998 4.83317C12.6179 4.83317 10.1526 5.85748 8.10401 7.90609C6.09012 9.91998 5.08317 12.3679 5.08317 15.2498C5.08317 17.7151 5.55192 19.7811 6.48942 21.4478C7.46164 23.0797 8.69428 24.8679 10.1873 26.8123C11.6457 28.7221 12.7394 30.2498 13.4686 31.3957C14.2325 32.5415 14.9096 33.7047 15.4998 34.8853ZM15.4998 20.4582C16.9582 20.4582 18.1908 19.9547 19.1978 18.9478C20.2047 17.9408 20.7082 16.7082 20.7082 15.2498C20.7082 13.7915 20.2047 12.5589 19.1978 11.5519C18.1908 10.545 16.9582 10.0415 15.4998 10.0415C14.0415 10.0415 12.8089 10.545 11.8019 11.5519C10.795 12.5589 10.2915 13.7915 10.2915 15.2498C10.2915 16.7082 10.795 17.9408 11.8019 18.9478C12.8089 19.9547 14.0415 20.4582 15.4998 20.4582Z" fill="black"/>
</svg>
