<svg width="80" height="80" viewBox="0 0 80 80" fill="none" xmlns="http://www.w3.org/2000/svg">
<path d="M40.0002 40.0002C36.3335 40.0002 33.1946 38.6946 30.5835 36.0835C27.9724 33.4724 26.6668 30.3335 26.6668 26.6668C26.6668 23.0002 27.9724 19.8613 30.5835 17.2502C33.1946 14.6391 36.3335 13.3335 40.0002 13.3335C43.6668 13.3335 46.8057 14.6391 49.4168 17.2502C52.0279 19.8613 53.3335 23.0002 53.3335 26.6668C53.3335 30.3335 52.0279 33.4724 49.4168 36.0835C46.8057 38.6946 43.6668 40.0002 40.0002 40.0002ZM13.3335 66.6668V57.3335C13.3335 55.4446 13.8196 53.7085 14.7918 52.1252C15.7641 50.5418 17.0557 49.3335 18.6668 48.5002C22.1113 46.7779 25.6113 45.4863 29.1668 44.6252C32.7224 43.7641 36.3335 43.3335 40.0002 43.3335C43.6668 43.3335 47.2779 43.7641 50.8335 44.6252C54.3891 45.4863 57.8891 46.7779 61.3335 48.5002C62.9446 49.3335 64.2363 50.5418 65.2085 52.1252C66.1807 53.7085 66.6668 55.4446 66.6668 57.3335V66.6668H13.3335ZM20.0002 60.0002H60.0002V57.3335C60.0002 56.7224 59.8474 56.1668 59.5418 55.6668C59.2363 55.1668 58.8335 54.7779 58.3335 54.5002C55.3335 53.0002 52.3057 51.8752 49.2502 51.1252C46.1946 50.3752 43.1113 50.0002 40.0002 50.0002C36.8891 50.0002 33.8057 50.3752 30.7502 51.1252C27.6946 51.8752 24.6668 53.0002 21.6668 54.5002C21.1668 54.7779 20.7641 55.1668 20.4585 55.6668C20.1529 56.1668 20.0002 56.7224 20.0002 57.3335V60.0002ZM40.0002 33.3335C41.8335 33.3335 43.4029 32.6807 44.7085 31.3752C46.0141 30.0696 46.6668 28.5002 46.6668 26.6668C46.6668 24.8335 46.0141 23.2641 44.7085 21.9585C43.4029 20.6529 41.8335 20.0002 40.0002 20.0002C38.1668 20.0002 36.5974 20.6529 35.2918 21.9585C33.9863 23.2641 33.3335 24.8335 33.3335 26.6668C33.3335 28.5002 33.9863 30.0696 35.2918 31.3752C36.5974 32.6807 38.1668 33.3335 40.0002 33.3335Z" fill="black"/>
</svg>
