<svg width="46" height="43" viewBox="0 0 46 43" fill="none" xmlns="http://www.w3.org/2000/svg">
<path d="M32.3413 21.2407L23.5249 26.5532L23.5229 26.5542C23.335 26.668 23.1411 26.76 22.9399 26.8306L22.7358 26.894C22.4555 26.971 22.1812 27.0075 21.9106 27.0063L21.7017 26.9985C21.5624 26.9888 21.4222 26.9703 21.2808 26.9419L21.0679 26.8921C20.8663 26.8385 20.6711 26.7631 20.4819 26.6646L20.2944 26.5581L20.2866 26.5532L11.4702 21.2407L9.95361 20.3267V31.6821L10.4468 31.9722L21.3989 38.4194L21.9058 38.7183L22.4136 38.4194L33.3647 31.9722L33.8579 31.6821V20.3267L32.3413 21.2407ZM21.3989 4.64014L6.39404 13.4751L4.93115 14.3364L6.39404 15.1978L21.3989 24.0327L21.9058 24.3315L22.4136 24.0327L37.4175 15.1978L38.8804 14.3364L37.4175 13.4751L22.4136 4.64014L21.9058 4.34131L21.3989 4.64014ZM7.57373 19.0239L7.08936 18.7329L1.83252 15.5688L1.82764 15.5659L1.6499 15.4458C1.54489 15.3647 1.46608 15.2823 1.40674 15.1997L1.33154 15.0767C1.22691 14.8714 1.1665 14.6307 1.1665 14.3364C1.16651 14.1157 1.20015 13.9253 1.26123 13.7573L1.33154 13.5972C1.41513 13.4331 1.56161 13.2651 1.82764 13.1069L1.82666 13.106L20.3354 2.12354L20.3433 2.11865C20.5367 2.0015 20.73 1.90882 20.9233 1.83838L21.1167 1.7749C21.3083 1.71964 21.503 1.6855 21.7017 1.67236L21.9019 1.6665C22.1067 1.66743 22.3074 1.68917 22.5054 1.73096L22.7026 1.77881C22.8953 1.83328 23.0862 1.90973 23.2759 2.00928L23.4653 2.1167L23.4751 2.12256L44.3384 14.5396L44.355 14.5493L44.3716 14.5581C44.5121 14.6347 44.6289 14.7349 44.7261 14.8696L44.8169 15.0161C44.909 15.1893 44.9662 15.3705 44.9888 15.5659L44.9995 15.7661V31.0513C44.9995 31.445 44.8986 31.7385 44.7153 31.978L44.6323 32.0776C44.4007 32.3301 44.1485 32.4398 43.812 32.439C43.5148 32.4382 43.2828 32.3523 43.0737 32.1616L42.9858 32.0737C42.7511 31.8188 42.6187 31.5011 42.6187 31.0513V15.1978L41.105 16.105L36.7241 18.7319L36.2388 19.0229V31.0513C36.2387 31.7193 36.1111 32.3074 35.8687 32.8306L35.7583 33.0513C35.4445 33.6272 35.0071 34.0819 34.4312 34.4272L23.479 40.8745L23.4683 40.8804C23.2744 40.9977 23.0818 41.0912 22.8892 41.1616L22.6968 41.2241C22.4443 41.2973 22.183 41.3346 21.9106 41.3335L21.7036 41.3257C21.499 41.3113 21.3004 41.2764 21.1069 41.2222C20.8566 41.1519 20.6043 41.0413 20.3491 40.8843L20.3403 40.8794L20.3325 40.8745L9.38721 34.4312C8.87996 34.127 8.48007 33.7395 8.17725 33.2612L8.05322 33.0503C7.73936 32.4755 7.57378 31.8167 7.57373 31.0513V19.0239Z" fill="black" stroke="black" stroke-width="2"/>
</svg>
