<svg width="40" height="40" viewBox="0 0 40 40" fill="none" xmlns="http://www.w3.org/2000/svg">
<path fill-rule="evenodd" clip-rule="evenodd" d="M20 2.57184e-07C17.6851 -0.000478906 15.4195 0.668603 13.4763 1.92659C11.5331 3.18458 9.99517 4.97777 9.048 7.09C8.91326 7.39282 8.77525 7.69417 8.634 7.994L8.594 7.996C8.466 8 8.292 8 8 8C5.87827 8 3.84344 8.84285 2.34315 10.3431C0.842855 11.8434 0 13.8783 0 16C0 18.1217 0.842855 20.1566 2.34315 21.6569C3.84344 23.1571 5.87827 24 8 24H8.344L12.344 20H8C6.93913 20 5.92172 19.5786 5.17157 18.8284C4.42143 18.0783 4 17.0609 4 16C4 14.9391 4.42143 13.9217 5.17157 13.1716C5.92172 12.4214 6.93913 12 8 12H8.128C8.544 12 9.028 12.002 9.428 11.92C9.92592 11.8348 10.4019 11.6513 10.828 11.38C11.31 11.068 11.642 10.68 11.894 10.326C12.0484 10.098 12.1829 9.85709 12.296 9.606C12.4027 9.38333 12.5333 9.098 12.688 8.75L12.696 8.73C13.3268 7.32032 14.3521 6.12331 15.6482 5.2834C16.9442 4.44349 18.4556 3.99658 20 3.99658C21.5444 3.99658 23.0558 4.44349 24.3518 5.2834C25.6479 6.12331 26.6732 7.32032 27.304 8.73L27.314 8.75C27.4673 9.09667 27.5973 9.382 27.704 9.606C27.796 9.8 27.932 10.082 28.106 10.326C28.358 10.678 28.688 11.068 29.172 11.382C29.656 11.694 30.146 11.836 30.572 11.922C30.972 12.002 31.456 12.002 31.872 12.002L32 12C33.0609 12 34.0783 12.4214 34.8284 13.1716C35.5786 13.9217 36 14.9391 36 16C36 17.0609 35.5786 18.0783 34.8284 18.8284C34.0783 19.5786 33.0609 20 32 20H27.656L31.656 24H32C34.1217 24 36.1566 23.1571 37.6569 21.6569C39.1571 20.1566 40 18.1217 40 16C40 13.8783 39.1571 11.8434 37.6569 10.3431C36.1566 8.84285 34.1217 8 32 8C31.708 8 31.534 8 31.406 7.996H31.366L31.316 7.89C31.1922 7.62445 31.0709 7.35777 30.952 7.09C30.0048 4.97777 28.4669 3.18458 26.5237 1.92659C24.5805 0.668603 22.3149 -0.000478906 20 2.57184e-07Z" fill="white"/>
<path d="M19.9999 19.9999L18.5859 18.5859L19.9999 17.1719L21.4139 18.5859L19.9999 19.9999ZM21.9999 37.9999C21.9999 38.5303 21.7892 39.039 21.4142 39.4141C21.0391 39.7892 20.5304 39.9999 19.9999 39.9999C19.4695 39.9999 18.9608 39.7892 18.5857 39.4141C18.2107 39.039 17.9999 38.5303 17.9999 37.9999H21.9999ZM10.5859 26.5859L18.5859 18.5859L21.4139 21.4139L13.4139 29.4139L10.5859 26.5859ZM21.4139 18.5859L29.4139 26.5859L26.5859 29.4139L18.5859 21.4139L21.4139 18.5859ZM21.9999 19.9999V37.9999H17.9999V19.9999H21.9999Z" fill="white"/>
</svg>
