<svg width="24" height="23" viewBox="0 0 24 23" fill="none" xmlns="http://www.w3.org/2000/svg">
<path d="M2.91667 22.7136C2.11458 22.7136 1.42819 22.4282 0.8575 21.8575C0.286805 21.2868 0.000972222 20.6 0 19.7969V16.8802C0 16.467 0.14 16.1209 0.42 15.8419C0.7 15.5629 1.04611 15.4229 1.45833 15.4219C1.87056 15.4209 2.21715 15.5609 2.49812 15.8419C2.7791 16.1229 2.91861 16.469 2.91667 16.8802V19.7969H20.4167V16.8802C20.4167 16.467 20.5567 16.1209 20.8367 15.8419C21.1167 15.5629 21.4628 15.4229 21.875 15.4219C22.2872 15.4209 22.6338 15.5609 22.9148 15.8419C23.1958 16.1229 23.3353 16.469 23.3333 16.8802V19.7969C23.3333 20.599 23.048 21.2859 22.4773 21.8575C21.9066 22.4292 21.2197 22.7145 20.4167 22.7136H2.91667ZM10.2083 4.99481L7.47396 7.72919C7.18229 8.02086 6.83618 8.16086 6.43563 8.14919C6.03507 8.13752 5.68847 7.98537 5.39583 7.69273C5.12847 7.40106 4.98847 7.06079 4.97583 6.6719C4.96319 6.28301 5.10319 5.94273 5.39583 5.65106L10.6458 0.401064C10.7917 0.25523 10.9497 0.152175 11.1198 0.091897C11.2899 0.0316193 11.4722 0.000994658 11.6667 2.24362e-05C11.8611 -0.000949786 12.0434 0.0296748 12.2135 0.091897C12.3837 0.154119 12.5417 0.257175 12.6875 0.401064L17.9375 5.65106C18.2292 5.94273 18.3692 6.28301 18.3575 6.6719C18.3458 7.06079 18.2058 7.40106 17.9375 7.69273C17.6458 7.9844 17.2997 8.13655 16.8992 8.14919C16.4986 8.16183 16.152 8.02183 15.8594 7.72919L13.125 4.99481V15.4219C13.125 15.8351 12.985 16.1817 12.705 16.4617C12.425 16.7417 12.0789 16.8812 11.6667 16.8802C11.2544 16.8793 10.9083 16.7393 10.6283 16.4602C10.3483 16.1812 10.2083 15.8351 10.2083 15.4219V4.99481Z" fill="#A3A3A3"/>
</svg>
